<?xml version="1.0" standalone="no"?>
<!DOCTYPE svg PUBLIC "-//W3C//DTD SVG 20010904//EN"
 "http://www.w3.org/TR/2001/REC-SVG-20010904/DTD/svg10.dtd">
<svg version="1.0" xmlns="http://www.w3.org/2000/svg"
 width="700.000000pt" height="700.000000pt" viewBox="0 0 700.000000 700.000000"
 preserveAspectRatio="xMidYMid meet">
<metadata>
Created by potrace 1.14, written by Peter Selinger 2001-2017
</metadata>
<g transform="translate(0.000000,700.000000) scale(0.100000,-0.100000)"
fill="#000000" stroke="none">
<path d="M498 6975 c-242 -84 -391 -229 -466 -450 l-27 -80 -3 -2910 c-3
-3227 -7 -2990 62 -3140 82 -175 222 -299 411 -363 l80 -27 2895 -3 c2018 -2
2916 1 2965 8 263 41 448 194 547 455 l38 99 0 2931 0 2931 -24 73 c-87 253
-224 393 -462 470 l-96 31 -2927 -1 -2926 0 -67 -24z m3159 -701 c67 -18 128
-60 165 -116 60 -88 57 -19 58 -1476 l2 -1337 -22 -58 c-29 -77 -100 -148
-175 -176 -46 -17 -78 -21 -184 -21 -185 0 -266 31 -332 126 -61 90 -59 33
-59 1454 0 1334 1 1374 40 1450 27 53 96 119 146 142 88 39 239 44 361 12z
m-1389 -586 c24 -17 48 -45 62 -73 22 -45 22 -52 18 -348 -4 -283 -5 -305 -25
-342 -12 -22 -76 -92 -144 -155 -325 -305 -491 -575 -559 -909 -86 -428 -30
-849 164 -1248 101 -206 188 -333 336 -487 265 -276 635 -483 995 -555 664
-133 1302 75 1780 581 337 356 515 824 515 1351 0 235 -30 396 -111 604 -83
211 -222 407 -446 629 -202 199 -197 186 -201 511 -4 301 3 350 57 404 59 60
150 75 230 39 118 -54 392 -272 561 -446 376 -388 599 -826 669 -1314 43 -295
51 -520 26 -735 -60 -521 -240 -982 -534 -1373 -549 -727 -1314 -1112 -2212
-1112 -506 0 -1078 194 -1508 512 -376 278 -663 620 -866 1033 -166 337 -228
564 -276 1014 -32 295 -18 528 46 801 146 614 509 1137 1058 1524 153 108 197
128 269 123 40 -2 68 -11 96 -29z"/>
</g>
</svg>
