<?xml version="1.0" encoding="utf-8"?>
<!-- Generator: Adobe Illustrator 28.2.0, SVG Export Plug-In . SVG Version: 6.00 Build 0)  -->
<svg version="1.1" id="Layer_1" xmlns="http://www.w3.org/2000/svg" xmlns:xlink="http://www.w3.org/1999/xlink" x="0px" y="0px"
	 viewBox="0 0 595.3 195.4" style="enable-background:new 0 0 595.3 195.4;" xml:space="preserve">
<style type="text/css">
	.st0{fill:#FFFFFF;}
	.st1{fill:#13C0DD;}
</style>
<g>
	<g>
		<path class="st0" d="M0,90.7c0.2-1.5,0.5-2.9,0.7-4.3c1.2-9.2,3.8-18,8-26.3c6.5-12.8,16-23.1,27.6-31.5c1.6-1.2,3.4-2.2,5-3.4
			c4.1-3.1,10.4-0.8,10.6,5.3c0.2,5,0,10-0.1,15c-0.1,3.5-1.9,6.2-4.5,8.4c-7.6,6.6-13.9,14.1-17.7,23.5c-3.1,7.6-4,15.6-3.7,23.8
			c0.5,12.5,4.3,23.9,11.3,34.3c2.8,4.2,6.1,7.9,9.7,11.3c6.1,5.6,13,10,20.7,13c4.9,1.9,10,3.2,15.2,3.8c3.7,0.4,7.4,0.5,11,0.3
			c11.5-0.6,22.1-4.1,31.6-10.6c16.1-10.9,25.6-26.1,28.6-45.3c1.4-9,1.1-17.9-1.7-26.6c-2.6-8.3-7.2-15.4-13.1-21.7
			c-1.9-2.1-4.1-4-6.1-6c-2.5-2.4-4-5.2-4-8.7c0-4.8,0-9.6,0-14.4c0-2.7,1.2-4.7,3.5-6c2.3-1.2,4.5-0.9,6.7,0.4
			c10.7,6.9,19.9,15.3,27.2,25.8c6.6,9.5,10.8,20.1,12.8,31.5c1.1,6.4,1.8,12.8,1.4,19.3c-0.9,14.1-4.2,27.5-10.8,40.1
			c-5,9.5-11.4,17.9-19.3,25.1c-8.6,7.9-18.4,14.1-29.4,18c-4.6,1.7-9.4,2.9-14.1,4c-3.2,0.8-6.6,1.2-9.9,1.5
			c-3.2,0.2-6.5,0.2-9.7,0.1c-3.2-0.1-6.5-0.2-9.6-0.7c-5.8-0.9-11.5-2.2-17-4.2c-11.6-4.1-21.9-10.3-30.9-18.6
			c-6.9-6.4-12.8-13.6-17.5-21.7C6.6,134.7,2.7,123.4,1,111.2c-0.3-1.9-0.5-3.8-0.7-5.7c0-0.1-0.2-0.2-0.2-0.4
			C0,100.3,0,95.5,0,90.7z"/>
		<path class="st1" d="M103.5,58.1c0,14.4,0.1,28.8,0,43.2c-0.1,5.8-5,10.1-10,10c-1.9-0.1-3.7-0.1-5.6,0c-4.7,0.2-9.5-3.4-10.4-9.5
			c-0.1-0.6,0.1-1.2,0.1-1.8c0-27.9,0-55.8,0-83.6c0-2.8,0.5-5.2,2.2-7.4c2-2.7,4.8-4,8.1-4.1c2.6-0.1,5.2,0,7.7,0.4
			c4.5,0.8,7.9,4.9,7.9,9.8C103.5,29.4,103.5,43.8,103.5,58.1z"/>
		<path class="st1" d="M488.1,86.3c0.1-8.7,2.8-16.4,9-22.5c5-4.9,11.1-7.6,18.1-8.3c6.9-0.7,13.5,0.2,19.5,3.7
			c8.2,4.7,13,11.8,14.5,21.1c1.2,7.2,0.6,14.2-2.8,20.8c-4.6,9.1-12,14.3-22,15.8c-6.9,1.1-13.7,0.4-20-2.8
			c-8.8-4.5-13.9-11.7-15.7-21.3C488.4,90.6,488.3,88.4,488.1,86.3z M519.1,65.4c-8.2,0.1-14.2,3.7-17.8,11.1
			c-2.2,4.5-2.5,9.3-1.7,14.3c0.7,4.4,2.7,8.1,5.9,11.2c4.2,4,9.2,5.5,14.9,5.2c6.5-0.4,11.6-3.2,15.2-8.7c2.9-4.5,3.6-9.5,3.2-14.7
			C537.8,73.3,529.9,65.2,519.1,65.4z"/>
		<path class="st0" d="M288,62.3c1.2-0.9,2.3-1.9,3.5-2.6c10.6-7.1,26.4-5.7,34.9,3.2c4.1,4.3,6.3,9.4,7,15.2c0.3,2.5,0.4,5,0.4,7.5
			c0,8.2,0,16.4,0,24.7c0,0.9,0,1.8-0.3,2.7c-0.7,2.6-3.3,4.2-6,3.9c-3-0.4-5-2.4-5.2-5.5c-0.1-1.3,0-2.6,0-3.8
			c0-8.6,0-17.2-0.1-25.8c-0.1-4.1-1.3-7.9-4.1-11c-4.1-4.4-9.4-5.5-15.1-5.2c-2.9,0.2-5.6,1-8.1,2.5c-4.5,2.8-7,6.7-7,12.3
			c0.1,10,0,19.9,0,29.9c0,0.7,0,1.4-0.1,2.1c-0.4,2.8-2.6,4.6-5.5,4.6c-2.8,0-5.2-1.8-5.6-4.4c-0.1-0.5-0.2-1.1-0.2-1.6
			c0-16.4,0-32.8,0-49.2c0-4.4,3.6-7,7.7-5.7c2.1,0.7,3.3,2.1,3.6,4.3C287.9,60.9,288,61.6,288,62.3z"/>
		<path class="st0" d="M400.2,58c3.1,0,6,0,8.9,0c0.9,0,1.7,0.1,2.6,0.3c2.2,0.7,3.4,2.5,3.2,5c-0.1,2.1-1.6,3.8-3.7,4.2
			c-1.4,0.2-2.8,0.2-4.2,0.2c-2.1,0-4.2,0-6.3,0c-0.1,0-0.2,0-0.4,0c0,0.3-0.1,0.6-0.1,0.9c0,8.9,0,17.8,0,26.8
			c0,2.8,0.8,5.4,2.7,7.5c1.5,1.8,3.5,2.7,5.8,2.8c1.1,0,2.2,0,3.2,0c2.5,0,4.3,1.2,5,3.4c0.8,2.5,0.2,5.1-1.9,6.4
			c-1,0.6-2.2,1.1-3.3,1.3c-11.6,1.3-21-6.1-22.5-17.8c-0.2-1.5-0.3-3-0.3-4.6c0-8.4,0-16.9,0-25.3c0-0.4,0-0.9,0-1.4
			c-1.6,0-3.2,0-4.7,0c-0.8,0-1.6-0.1-2.3-0.3c-2.3-0.6-3.6-2.7-3.4-5.2c0.2-2.2,2-3.9,4.3-4.1c2-0.1,3.9,0,6.1,0c0-1.2,0-2.3,0-3.3
			c0-4.3,0-8.7,0-13c0-2.4,1.4-4.3,3.5-5c2.4-0.8,4.9-0.2,6.4,1.6c0.9,1.1,1.2,2.4,1.2,3.8C400.2,47.3,400.2,52.5,400.2,58z"/>
		<path class="st0" d="M218.3,66.6c0,9.8,0,19.7,0,29.5c0,2.4,0.3,4.8,1.6,6.9c1,1.8,2.5,2.8,4.7,2.7c0.7,0,1.3,0,2,0
			c2.4,0,4,1.2,4.8,3.4c0.9,2.4,0.3,4.7-1.6,6.1c-2.5,1.9-5.3,2-8.2,1.5c-7.5-1.2-11.5-6.3-13.5-13.2c-0.7-2.4-0.9-4.9-0.9-7.3
			c-0.1-20.2,0-40.3,0-60.5c0-4.2,2.9-6.6,6.9-5.9c2.5,0.5,4.2,2.5,4.3,5.4c0.1,1.9,0,3.8,0,5.7C218.3,49.4,218.3,58,218.3,66.6z"/>
		<path class="st0" d="M243.9,86.2c0-8.3,0-16.6,0-24.9c0-2.4,1.3-4.3,3.4-5.1c2.3-0.9,5-0.3,6.5,1.3c1.1,1.2,1.5,2.6,1.5,4.2
			c0,9.4,0,18.8,0,28.2c0,7.1,0,14.3,0,21.4c0,2.4-1.5,4.5-3.7,5.2c-2.5,0.8-5.3,0.1-6.6-2c-0.6-1-1-2.3-1.1-3.5
			C243.9,102.8,243.9,94.5,243.9,86.2z"/>
		<path class="st0" d="M353.8,86.1c0-8.3,0-16.6,0-24.9c0-2.4,1.3-4.3,3.4-5.1c2.3-0.9,5-0.3,6.5,1.3c1.1,1.2,1.5,2.6,1.5,4.2
			c0,9.7,0,19.3,0,29c0,6.9,0,13.7,0,20.6c0,2.6-1.5,4.7-3.8,5.3c-2.6,0.8-5.3,0-6.6-2.1c-0.6-1-1-2.2-1-3.3
			C353.8,102.8,353.8,94.5,353.8,86.1z"/>
		<path class="st1" d="M458.7,86.3c0-8.3,0-16.6,0-24.9c0-2.2,0.8-3.9,2.8-4.9c2-1.1,4.1-1.1,6.1,0.1c1.9,1.1,2.5,3,2.5,5.1
			c0,11.4,0,22.7,0,34.1c0,5.1,0,10.2,0,15.4c0,2.5-1.4,4.5-3.5,5.3c-2.4,0.9-4.9,0.2-6.6-1.6c-1-1.1-1.3-2.4-1.3-3.9
			C458.7,102.7,458.7,94.5,458.7,86.3z"/>
		<path class="st0" d="M456.5,141.9c0,0.7,0,1.1,0,1.5c0,5.6,0,11.2,0,16.7c0,1.6-0.4,2.2-1.3,2.2c-1,0-1.4-0.6-1.4-2.1
			c0-7.6,0-15.2,0-22.8c0-0.9-0.2-1.8,1-2.1c1.2-0.3,1.6,0.5,2,1.4c3.3,6.7,6.7,13.3,10,20c0.2,0.4,0.4,0.7,0.7,1.2
			c1.3-2.7,2.6-5.3,3.9-7.8c2.2-4.4,4.4-8.9,6.5-13.3c0.2-0.3,0.3-0.8,0.5-0.9c0.4-0.3,1-0.6,1.4-0.5c0.4,0.1,0.8,0.6,1,1.1
			c0.2,0.3,0.1,0.7,0.1,1.1c0,7.6,0,15.1,0,22.7c0,0.4,0.1,0.8-0.1,1.1c-0.3,0.4-0.8,1-1.1,1c-0.5,0-1.1-0.4-1.4-0.9
			c-0.2-0.3-0.2-0.9-0.2-1.3c0-6,0-12-0.2-18.1c-0.2,0.4-0.4,0.7-0.6,1.1c-2.8,5.8-5.6,11.5-8.5,17.3c-0.3,0.6-1,1.2-1.5,1.3
			c-0.4,0-1.2-0.7-1.4-1.2c-2.9-5.7-5.8-11.5-8.7-17.2C457.1,142.9,456.9,142.6,456.5,141.9z"/>
		<path class="st0" d="M206.8,148.8c0-8,5.9-13.9,13.9-13.9c8,0,13.9,6,13.9,14c0,8-6,13.9-13.9,13.9
			C212.7,162.8,206.8,156.9,206.8,148.8z M231.8,148.8c0-6.5-4.7-11.3-11.3-11.2c-6.4,0-11.1,4.8-11,11.3c0,6.5,4.8,11.3,11.3,11.3
			C227.1,160.1,231.8,155.3,231.8,148.8z"/>
		<path class="st1" d="M434.4,103.1c4.2,0,7.7,3.5,7.7,7.7c0,4.3-3.5,7.7-7.8,7.7c-4.2,0-7.6-3.5-7.6-7.7
			C426.6,106.5,430,103.1,434.4,103.1z"/>
		<path class="st0" d="M242.6,159.5c0,2.5,0,5,0,7.6c0,0.7,0,1.4,0,2.1c-0.1,0.8-0.5,1.3-1.3,1.3c-0.9,0-1.3-0.5-1.4-1.4
			c0-0.2,0-0.4,0-0.6c0-5.1,0-10.2,0-15.4c0-5,2.8-8.6,7.4-9.7c5.2-1.3,10.3,1.7,11.7,6.8c1.4,5.2-1.4,10.5-6.3,11.9
			c-3.5,1-6.6,0.3-9.3-2.3c-0.2-0.1-0.3-0.3-0.4-0.4C242.8,159.5,242.7,159.5,242.6,159.5z M249.5,145.7c-4,0-7,3.1-7,7.2
			c0,4.1,3,7.1,6.9,7.2c4,0,7-3.1,7.1-7.2C256.5,148.8,253.5,145.7,249.5,145.7z"/>
		<path class="st0" d="M536.4,146.2c0-2.8,0-5.8,0-8.7c0-0.4-0.1-0.9,0.1-1.1c0.4-0.5,0.9-1,1.4-1.1c0.4,0,0.9,0.6,1.3,1
			c0.1,0.1,0.1,0.3,0.1,0.5c0,5.7,0.1,11.5-0.2,17.2c-0.3,5.3-5.2,9.1-10.5,8.5c-5.5-0.6-9.3-5.3-8.7-10.6
			c0.8-6.6,6.8-10.5,12.7-8.2C533.9,144.4,535.1,145.4,536.4,146.2z M529.5,145.7c-4,0-7.1,3.1-7,7.2c0,4,3.2,7.2,7.1,7.2
			c3.9,0,6.9-3.1,6.9-7.2C536.6,148.8,533.6,145.7,529.5,145.7z"/>
		<path class="st1" d="M257,38.5c0.4,3.7-3.6,7.6-7.7,7.5c-3.5-0.1-7.4-3.7-7.3-7.7c0.1-3.5,3.6-7.5,7.8-7.3
			C253.4,31.1,257.4,34.5,257,38.5z"/>
		<path class="st1" d="M464.4,45.8c-4,0-7.4-3.5-7.3-7.5c0.1-3.9,3.5-7.3,7.4-7.3c4,0,7.4,3.5,7.4,7.5
			C471.8,42.5,468.4,45.9,464.4,45.8z"/>
		<path class="st0" d="M565.9,153.8c0.6,5.4,6.4,8.1,11,5.2c0.2-0.1,0.4-0.3,0.6-0.4c0.7-0.4,1.4-0.5,1.9,0.2
			c0.5,0.7,0.2,1.3-0.4,1.8c-2.9,2.3-7.6,2.7-10.9,0.9c-3.3-1.8-5.2-5.5-4.8-9.4c0.5-4.6,2.9-7.7,6.9-8.6c5.9-1.4,11.2,2.9,11,9
			c0,1.2-0.7,1.4-1.7,1.4c-4.1,0-8.1,0-12.2,0C566.9,153.8,566.5,153.8,565.9,153.8z M566,151.5c4.2,0,8.3,0,12.5,0
			c-0.2-3.3-2.5-5.6-5.6-5.8C569.2,145.5,566.6,147.7,566,151.5z"/>
		<path class="st0" d="M266.1,153.8c0.1,4.5,4.7,7.4,9.2,6c0.8-0.3,1.6-0.7,2.3-1.2c0.7-0.4,1.4-0.5,2,0.2c0.5,0.7,0.1,1.3-0.5,1.8
			c-3,2.3-7.7,2.7-11,0.7c-3.6-2.1-4.9-5.4-4.6-9.5c0.4-4.5,2.8-7.4,6.7-8.4c6-1.5,11.3,2.7,11.1,8.8c0,1.1-0.6,1.5-1.7,1.5
			c-4.1,0-8.2,0-12.3,0C266.9,153.8,266.5,153.8,266.1,153.8z M278.6,151.5c-0.2-3.3-2.5-5.6-5.8-5.8c-3.6-0.1-6.1,2.1-6.7,5.8
			C270.2,151.5,274.4,151.5,278.6,151.5z"/>
		<path class="st0" d="M346.2,143.2c5.6,0,9.7,4.1,9.7,9.8c0,5.5-4.2,9.6-9.7,9.6c-5.6,0-9.7-4.1-9.7-9.7
			C336.5,147.4,340.6,143.2,346.2,143.2z M346.2,145.7c-4,0-7,3-7,7.2c0,4.1,3,7.2,7,7.2c4,0,7-3.1,7-7.2
			C353.2,148.7,350.3,145.7,346.2,145.7z"/>
		<path class="st0" d="M500.2,145.7c2.5-2.3,5.4-2.9,8.4-2.3c3.9,0.8,6.3,3.9,6.4,8.2c0.1,3,0,6.1,0,9.2c0,0.9-0.3,1.6-1.4,1.6
			c-1.1,0-1.3-0.8-1.3-1.7c0-3.3,0-6.6-0.2-9.9c-0.2-2.7-1.8-4.3-4.6-4.9c-2.6-0.6-5.6,0.5-6.7,2.5c-0.4,0.8-0.6,1.8-0.6,2.7
			c-0.1,3,0,6,0,9c0,0.4,0.1,1-0.2,1.3c-0.2,0.4-0.8,0.8-1.2,0.8c-0.5,0-1-0.4-1.3-0.8c-0.2-0.3-0.2-0.8-0.2-1.2c0-5,0-9.9,0-14.9
			c0-0.3-0.1-0.8,0.1-1c0.3-0.4,0.8-1,1.3-1.1c0.4,0,1,0.6,1.3,1C500.2,144.7,500.1,145.1,500.2,145.7z"/>
		<path class="st0" d="M288.6,145.6c2-1.8,4.3-2.7,6.9-2.4c4.9,0.5,7.7,3.4,7.9,8.3c0.1,3.1,0,6.2,0,9.3c0,0.9-0.4,1.6-1.5,1.6
			c-1,0-1.3-0.7-1.3-1.6c0-2.9,0-5.9,0-8.8c-0.1-5.2-5.1-7.9-9.6-5.4c-1.7,0.9-2.6,2.3-2.6,4.3c0,3,0,6,0,9c0,0.3,0,0.6,0,0.9
			c-0.1,0.9-0.3,1.5-1.4,1.5c-1,0-1.4-0.6-1.4-1.5c0-0.4,0-0.7,0-1.1c0-4.7,0-9.4,0-14.1c0-0.4-0.1-0.9,0.1-1.1
			c0.4-0.5,0.9-1.1,1.3-1.1c0.4,0,0.9,0.6,1.3,1C288.5,144.7,288.5,145.1,288.6,145.6z"/>
		<path class="st0" d="M375.6,160.1c-2.7,2.5-5.7,3.1-9,2.1c-3.5-1-5.7-3.9-5.8-7.7c-0.1-3.2,0-6.4,0-9.5c0-0.9,0.4-1.6,1.4-1.6
			c1,0,1.4,0.7,1.4,1.7c0,2.9,0,5.8,0,8.7c0.1,5.2,4.9,8,9.5,5.5c1.7-0.9,2.7-2.3,2.7-4.4c0-3.3,0-6.5,0-9.8c0-1.1,0.6-1.8,1.5-1.7
			c0.9,0.1,1.3,0.7,1.3,1.5c0,5.3,0,10.6,0,15.8c0,0.9-0.2,1.6-1.3,1.6c-1.1,0-1.4-0.6-1.5-1.6C375.7,160.6,375.6,160.4,375.6,160.1
			z"/>
		<path class="st0" d="M427.3,137.8c-2.6,0-5.1,0-7.6,0c-0.5,0-1.1-0.2-1.5-0.4c-0.7-0.6-0.4-1.7,0.5-2c0.4-0.1,0.8-0.1,1.2-0.1
			c5.9,0,11.7,0,17.6,0c0.2,0,0.5,0,0.7,0c0.8,0,1.4,0.4,1.4,1.3c0,0.8-0.6,1.3-1.4,1.3c-1.6,0-3.2,0-4.8,0c-1.1,0-2.1,0-3.3,0
			c0,0.6,0,1,0,1.4c0,6.9,0,13.9,0,20.8c0,0.4,0.1,0.8,0,1.1c-0.3,0.5-0.8,1.2-1.3,1.2c-0.5,0-1-0.6-1.4-1.1
			c-0.2-0.2-0.1-0.7-0.1-1.1C427.3,152.8,427.3,145.4,427.3,137.8z"/>
		<path class="st0" d="M552.1,143.2c2.4,0,4.6,0.6,6.3,2.4c0.6,0.6,1.2,1.3,0.3,2.1c-0.7,0.7-1.5,0.4-2.2-0.3
			c-1.9-1.9-4.2-2.1-6.6-1.5c-1.1,0.3-2,1-2.1,2.3c0,1.3,0.8,2.1,1.9,2.4c1.7,0.5,3.5,0.8,5.1,1.3c2.2,0.7,4.2,1.7,4.6,4.3
			c0.3,2-0.4,3.6-2,4.8c-3.2,2.4-9.6,2-12.4-0.9c-0.6-0.6-1-1.3-0.3-2c0.7-0.7,1.4-0.6,2.2,0.1c2.3,2.1,4.9,2.3,7.7,1.6
			c1.4-0.4,2.3-1.5,2.3-2.6c0-1.3-0.9-2.1-2.1-2.5c-1.5-0.5-3.1-0.7-4.6-1.2c-1.1-0.3-2.2-0.7-3.1-1.4c-2.7-1.9-2.8-5.7,0.1-7.5
			c1.4-0.9,3.2-1.2,4.8-1.7C552,143,552,143.1,552.1,143.2z"/>
		<path class="st0" d="M325.9,158.3c2-4.4,3.9-8.5,5.8-12.7c0.2-0.4,0.4-0.9,0.6-1.3c0.4-0.8,0.9-1.2,1.8-0.8c0.9,0.4,1,1,0.6,1.8
			c-3.7,8.1-7.4,16.2-11.1,24.4c-0.4,0.9-1,1.2-1.9,0.8c-0.9-0.4-0.8-1.1-0.5-1.9c1-2.1,1.9-4.3,2.9-6.4c0.3-0.7,0.3-1.3,0-1.9
			c-2.3-4.7-4.6-9.5-6.9-14.2c-0.1-0.3-0.3-0.5-0.4-0.8c-0.3-0.8-0.2-1.4,0.6-1.8c0.8-0.4,1.4-0.1,1.7,0.7c0.6,1.3,1.2,2.5,1.8,3.8
			C322.6,151.3,324.2,154.7,325.9,158.3z"/>
		<path class="st0" d="M589.4,144.1c1.3,0,2.4,0,3.6,0c0.9,0,1.5,0.3,1.5,1.3c0,0.9-0.7,1.2-1.4,1.2c-1.2,0-2.3,0-3.6,0
			c0,1.2,0,2.4,0,3.6c0,1.9,0,3.8,0,5.7c0,2.5,1.5,3.9,3.9,3.9c0.2,0,0.4,0,0.6,0c0.9,0,1.4,0.6,1.2,1.4c-0.1,0.5-0.7,1.2-1.2,1.3
			c-3.6,0.7-7.2-2-7.3-5.8c-0.1-3.3,0-6.6,0-10.1c-0.6,0-1.2,0-1.8,0c-0.9,0-1.7-0.1-1.7-1.3c0-1.1,0.8-1.2,1.7-1.2
			c0.6,0,1.1,0,1.8,0c0-1.8,0-3.4,0-5.1c0-0.9,0.2-1.6,1.3-1.6c1.1,0,1.5,0.6,1.5,1.6C589.5,140.6,589.4,142.2,589.4,144.1z"/>
		<path class="st0" d="M387.4,146c2.1-2.3,4.5-3.2,7.3-2.7c0.4,0.1,1,0.2,1.2,0.5c0.3,0.3,0.5,0.9,0.4,1.3c-0.1,0.3-0.6,0.7-1,0.7
			c-0.9,0.1-1.9,0-2.8,0c-3.1,0.1-5.1,2.2-5.2,5.3c0,3.2,0,6.3,0,9.5c0,0.9,0,1.8-1.3,1.8c-1.2,0-1.4-0.8-1.4-1.7
			c0-5.2,0-10.4,0-15.6c0-0.9,0.3-1.7,1.3-1.7c1.1,0,1.4,0.7,1.4,1.6C387.3,145.2,387.4,145.5,387.4,146z"/>
		<path class="st0" d="M411.1,148.7c0-3.9,0-7.8,0-11.6c0-1,0.2-1.8,1.3-1.8c1-0.1,1.4,0.6,1.4,1.9c0,7.8,0,15.6,0,23.4
			c0,1-0.2,1.8-1.3,1.8c-1,0-1.4-0.5-1.4-1.9C411.1,156.6,411.1,152.7,411.1,148.7z"/>
		<path class="st0" d="M490.7,153c0,2.6,0,5.1,0,7.7c0,1.3-0.7,2-1.7,1.6c-0.4-0.2-1-0.8-1-1.3c-0.1-5.4,0-10.9,0-16.3
			c0-0.9,0.6-1.4,1.4-1.3c1,0,1.3,0.7,1.3,1.6C490.7,147.7,490.7,150.3,490.7,153z"/>
		<path class="st0" d="M489.2,136c1.1,0,1.9,0.8,1.9,1.9c0,1.1-0.9,2-1.9,2c-1.1,0-1.9-0.9-1.9-2C487.3,136.8,488.1,136,489.2,136z"
			/>
		<path class="st1" d="M359.4,45.8c-4,0-7.4-3.5-7.3-7.5c0.1-3.9,3.5-7.3,7.4-7.3c4,0,7.4,3.5,7.4,7.5
			C366.9,42.5,363.4,45.8,359.4,45.8z"/>
	</g>
</g>
</svg>
